<svg width="97.000000" height="21.000000" viewBox="0 0 97 21" fill="none" xmlns="http://www.w3.org/2000/svg" xmlns:xlink="http://www.w3.org/1999/xlink">
	<desc>
			Created with Pixso.
	</desc>
	<defs>
		<clipPath id="clip2_17">
			<rect id="Frame" width="97.000000" height="21.000000" fill="white" fill-opacity="0"/>
		</clipPath>
	</defs>
	<rect id="Frame" width="97.000000" height="21.000000" fill="#FFFFFF" fill-opacity="0"/>
	<g clip-path="url(#clip2_17)">
		<path id="Vector" d="M0 18.27L2.34 15.66C3.51 16.96 5.09 17.4 6.81 17.4C8.94 17.4 10.09 16.5 10.09 14.85C10.09 14.12 9.91 13.51 9.52 13.11C9.15 12.73 8.74 12.53 7.88 12.38L5.64 12.03C4.05 11.77 2.88 11.22 2.05 10.32C1.17 9.33 0.72 8 0.72 6.26C0.72 2.58 3.17 0 7.18 0C9.73 0 11.57 0.69 13.16 2.4L10.87 4.93C9.7 3.68 8.29 3.5 7.07 3.5C5.15 3.5 4.21 4.69 4.21 6.12C4.21 6.64 4.37 7.19 4.76 7.59C5.12 7.97 5.72 8.29 6.47 8.41L8.66 8.76C10.35 9.02 11.42 9.54 12.2 10.35C13.19 11.39 13.63 12.9 13.63 14.73C13.63 18.73 10.64 21 6.76 21C3.95 21 1.82 20.33 0 18.27Z" fill="#359740" fill-opacity="1.000000" fill-rule="nonzero"/>
		<path id="Vector" d="M17.04 20.82L17.04 0.17L29.24 0.17L29.24 3.77L20.65 3.77L20.65 8.61L27.97 8.61L27.97 12.21L20.65 12.21L20.65 17.22L29.24 17.22L29.24 20.82L17.04 20.82Z" fill="#359740" fill-opacity="1.000000" fill-rule="nonzero"/>
		<path id="Vector" d="M32.78 20.82L32.78 0.17L44.98 0.17L44.98 3.77L36.39 3.77L36.39 8.61L43.71 8.61L43.71 12.21L36.39 12.21L36.39 17.22L44.98 17.22L44.98 20.82L32.78 20.82Z" fill="#359740" fill-opacity="1.000000" fill-rule="nonzero"/>
		<path id="Vector" d="M75.5 20.82L71.89 12.58L69.28 12.58L69.28 20.82L65.67 20.82L65.67 0.17L72.93 0.17C76.7 0.17 78.94 3.04 78.94 6.49C78.94 9.39 77.35 11.19 75.55 11.92L79.69 20.82L75.5 20.82ZM72.69 3.77L69.28 3.77L69.28 9.22L72.69 9.22C74.28 9.22 75.32 8.09 75.32 6.49C75.32 4.9 74.28 3.77 72.69 3.77Z" fill="#359740" fill-opacity="1.000000" fill-rule="nonzero"/>
		<path id="Vector" d="M93.22 20.82L92.13 17.17L85.55 17.17L84.43 20.82L80.65 20.82L87.39 0.17L90.23 0.17L97 20.82L93.22 20.82ZM88.9 6.26L86.56 13.77L91.17 13.77L88.9 6.26Z" fill="#359740" fill-opacity="1.000000" fill-rule="nonzero"/>
		<path id="Vector" d="M60.1 2.14C58.88 0.78 57.13 0.17 55.21 0.17L48.52 0.17L48.52 20.82L52.57 20.82C53.97 16.81 56.09 12.44 54.64 5.95C56.56 12.71 54.67 17.01 53.33 20.82L55.21 20.82C57.13 20.82 58.88 20.21 60.1 18.85C62.18 16.53 61.97 13.51 61.97 10.41C61.97 7.3 62.18 4.46 60.1 2.14ZM54.52 18.38C55.56 15.79 56.65 11.62 55.09 6.52C57.17 9.12 57.49 12.97 57.05 14.72C60.81 10.51 56.95 5.59 53.09 3.49C55.55 8.1 55.18 12.44 53.27 17.66C47.28 13.47 54.4 8.12 52.38 2.36C61.08 6.09 62.64 14.49 54.52 18.38Z" fill="#359740" fill-opacity="1.000000" fill-rule="nonzero"/>
	</g>
</svg>
